<?xml version="1.0" encoding="UTF-8"?>
<svg id="Layer_1" xmlns="http://www.w3.org/2000/svg" version="1.1" xmlns:xlink="http://www.w3.org/1999/xlink" viewBox="0 0 105 24">
  <!-- Generator: Adobe Illustrator 30.1.0, SVG Export Plug-In . SVG Version: 2.1.1 Build 136)  -->
  <defs>
    <style>
      .st0 {
        fill: #87e64b;
      }

      .st1 {
        fill: none;
      }

      .st2 {
        clip-path: url(#clippath);
      }
    </style>
    <clipPath id="clippath">
      <rect class="st1" width="105" height="24"/>
    </clipPath>
  </defs>
  <g class="st2">
    <g>
      <path d="M28.49,4.69c3.6,0,7.11,2.12,7.11,6.84,0,.38-.02.96-.06,1.36,0,.09-.09.16-.18.16h-10.09c.3,1.69,1.48,2.79,3.33,2.79,1.23,0,2.01-.68,2.44-1.49.05-.1.17-.16.28-.13l3.77.82c.12.03.18.15.13.26-.88,2-2.89,3.98-6.65,3.98-4.94,0-7.57-3.22-7.57-7.3s2.74-7.3,7.49-7.3h0ZM31.39,10.49c-.19-1.61-1.26-2.47-2.82-2.47-2.04,0-2.9,1.05-3.22,2.47h6.04Z"/>
      <path d="M36.89,18.68V5.31c0-.1.08-.18.18-.18h3.93c.1,0,.18.08.18.18v1.59c.94-1.48,2.34-2.2,4.13-2.2,2.63,0,4.89,1.8,4.89,5.82v8.16c0,.1-.08.18-.18.18h-3.93c-.1,0-.18-.08-.18-.18v-7.55c0-1.8-.94-2.79-2.31-2.79-1.48,0-2.42.97-2.42,3.17v7.17c0,.1-.08.18-.18.18h-3.93c-.1,0-.18-.08-.18-.18Z"/>
      <path d="M50.47,5.12h4.16c.08,0,.15.05.18.13l3.13,10.36,3.13-10.36c.02-.08.1-.13.18-.13h4.16c.13,0,.22.13.17.25l-4.79,13.32c-.04.1-.13.17-.24.17h-5.22c-.11,0-.21-.07-.24-.17l-4.79-13.32c-.04-.12.05-.25.17-.25h0Z"/>
      <path d="M74.69,18.68v-2.1c-.67,1.4-2.17,2.71-4.51,2.71-2.71,0-4.72-1.72-4.72-4.13,0-2.55,1.69-4.46,5.4-4.46h2.15c1.18,0,1.5-.86,1.4-1.42-.16-.97-1.02-1.48-2.23-1.48-1.53,0-2.45.84-2.56,2-.01.11-.11.18-.21.16l-3.64-.61c-.1-.02-.17-.11-.15-.21.59-3.17,3.6-4.46,6.68-4.46s6.5.75,6.5,6.44v7.55c0,.1-.08.18-.18.18h-3.71c-.1,0-.18-.08-.18-.18h0ZM71.44,16.18c1.72,0,2.9-1.29,3.03-2.9h-2.6c-1.58,0-2.15.64-2.12,1.53.03.94.78,1.37,1.69,1.37Z"/>
      <path d="M79.41,8.37v-3.07c0-.1.08-.18.18-.18h1.53c.71,0,1.29-.58,1.29-1.29V1.44c0-.1.08-.18.18-.18h3.5c.1,0,.18.08.18.18v3.68h2.82c.1,0,.18.08.18.18v3.07c0,.1-.08.18-.18.18h-2.82v4.97c0,1.62,1.38,2.28,2.81,1.77.1-.03.2.04.2.14v3.24c0,.12-.08.22-.2.25-.37.09-.89.16-1.49.16-3.33,0-5.61-1.13-5.61-5.96v-4.56h-2.39c-.1,0-.18-.08-.18-.18h0Z"/>
      <path d="M104.96,12c0,4.03-2.85,7.3-7.52,7.3s-7.52-3.27-7.52-7.3,2.85-7.3,7.52-7.3,7.52,3.27,7.52,7.3ZM100.67,12c0-1.99-1.1-3.65-3.22-3.65s-3.22,1.66-3.22,3.65,1.1,3.65,3.22,3.65,3.22-1.66,3.22-3.65Z"/>
      <path class="st0" d="M9.58,24c.59,0,1.07-.48,1.07-1.07s-.48-1.07-1.07-1.07-1.07.48-1.07,1.07.48,1.07,1.07,1.07Z"/>
      <path class="st0" d="M15.75,15.62l-6.05.65c-.11.01-.17-.13-.08-.2l5.92-4.61c.38-.31.63-.8.52-1.33-.11-.8-.77-1.33-1.61-1.22l-6.43.94c-.11.02-.17-.13-.08-.2l6.37-4.87c1.26-.98,1.36-2.9.21-4.02-1.05-1.05-2.73-1.01-3.77.03L.48,11.25c-.38.42-.56.98-.45,1.57.17.94,1.12,1.57,2.06,1.4l5.54-1.13c.12-.02.19.14.08.2l-6.14,3.93c-.77.49-1.12,1.36-.87,2.24.24,1.15,1.4,1.82,2.52,1.54l9.18-2.26c.1-.03.18.09.11.18l-1.43,1.77c-.38.49.24,1.15.77.77l4.72-3.88c.84-.7.28-2.06-.8-1.96Z"/>
    </g>
  </g>
</svg>