<?xml version="1.0" encoding="UTF-8"?>
<svg id="Layer_1" xmlns="http://www.w3.org/2000/svg" version="1.1" viewBox="0 0 846.62 872.29">
  <!-- Generator: Adobe Illustrator 30.5.1, SVG Export Plug-In . SVG Version: 2.1.4 Build 3)  -->
  <defs>
    <style>
      .st0, .st1 {
        fill: #fff;
      }

      .st1 {
        display: none;
      }

      .st2, .st3 {
        fill: #ff9800;
      }

      .st3 {
        stroke: #ff9800;
        stroke-miterlimit: 10;
      }
    </style>
  </defs>
  <g id="Generative_Object">
    <g>
      <path class="st0" d="M263.5,196.56c-.25,28.98-26.36,52.21-52.79,52.28l-48.15.13-90.98-.17c-31.8-.06-57.41-23.34-57.15-55.59l1.07-133.75c.1-12.86,2.49-24.61,9.7-35.28C34.85,9.91,51.1.1,69.03.09L208.39,0c32.14-.02,56.52,24.94,56.27,56.47l-.37,47.82-.8,92.27Z"/>
      <path class="st0" d="M248.28,194.89c-.31,24.41-20.07,39.7-43.31,39.52l-136.52-1.05c-23.26-.18-38.98-18.36-38.76-40.98l1.36-139.1c.2-20.15,16.69-38.22,37.2-38.2l142.53.17c21.99.03,39.03,18.46,38.87,41l-.49,68.96-.88,69.68Z"/>
    </g>
    <g>
      <path class="st0" d="M795.56,251.25l-51.77.24-87.14-.42c-31.28-.15-53.67-25.19-53.55-56.21l.07-19.07,1.18-119.35c.12-12.51,4.02-23.57,11.23-33.13,11.12-14.78,27.31-21.81,45.79-21.69l54.74.36,77.94.6c31.15.24,52.84,26.35,52.56,56.75l-.75,81.84-.38,56.25c-.19,27.44-21.53,51.84-49.93,53.83Z"/>
      <path class="st0" d="M830.46,195.72c-.17,24-19.09,41.26-42.32,41.16l-105.66-.45-26.4-.23c-7.33-.06-14.26-2.19-20.19-6.26-12.44-8.54-17.86-22.01-17.7-36.97l1.44-137.62c.22-20.73,16.82-37.74,37.39-38.45l66.99.27,68.4.27c23.11.09,39.22,18.52,39.07,40.32l-1,137.96Z"/>
    </g>
    <g>
      <path class="st0" d="M192.35,867.49l-89.49-.22-55.02-.73C17.76,863.78-.34,836.19,0,807.51l1.61-134.62c.12-10.27,3.57-18.97,8.99-27.24,10.45-15.94,26.96-25.01,46.17-24.89l68.3.41,72.17.32c26.29,2.78,45.96,23.64,48.63,50.04l-1.4,141.16c-.29,28.99-22,54.88-52.13,54.81Z"/>
      <path class="st0" d="M229.45,812.76c-.23,24.7-19.08,40.54-42.79,40.41l-85.19-.49-47.91-.08c-22.35-.04-38.78-19.1-38.55-42.62l1.34-134.58c.22-22.14,18.88-39.99,40.5-39.8l58.08.5,82.06.73c19.38,1.2,34.19,20.02,33.97,38.98l-1.02,86.75-.47,50.21Z"/>
    </g>
    <g>
      <path class="st0" d="M805.15,870.34c-7.59,2.21-14.76,1.95-22.41,1.92l-115.97-.53c-30.54,1.52-56.21-20.6-58.63-50.93l1.67-142.72c.21-17.68,10.14-33.08,24.52-42.38,6.85-4.43,14.54-8.65,22.97-8.66l85.3-.12,53.89.63c26.83,1.37,49.6,23.78,49.43,51.29l-.81,135.35c-.15,25.72-14.26,48.67-39.96,56.14Z"/>
      <path class="st0" d="M829.44,820.07c-.27,21.24-17.44,37.16-38.04,37.13l-126.82-.2c-9.26-.01-18.14-2.03-25.26-7.66-10.31-8.16-16.25-19.89-16.1-33.32l1.48-135.34c.24-21.68,17.12-38.73,38.62-38.9l35.86-.28,96.92,1.09c20.26.23,35.33,19.74,35.08,39.64l-1.73,137.83Z"/>
    </g>
    <g>
      <path class="st1" d="M520.2,870.39l-93.85-.49-95.86-.52c-27.43-.15-51.87-23.28-51.74-51.56l.78-163.01-14.95-9.41-44.25-29.87-32.99-26.17-55.09-.34-75.72-.15c-27.08-.05-52.9-22.49-52.72-50.35l.68-106.72.79-93.61c.28-33.31,25.78-57.96,58.75-57.74l147.56.98,39.08-30.12c15.45-11.91,31.28-22.26,48.1-32-1.78-9.9-2.08-18.61-1.95-28.48l1.71-138.79c.38-30.96,27.67-51.92,57.39-51.71l156.96,1.11c15.27.11,29.95,4.21,40.82,15.11,10.52,10.55,17.15,24.14,17.02,39.35l-1.3,160.55,43.6,28.95,49.1,38.35,133.86.49c29.56.11,52.38,25.41,53.06,54.57l-.47,53.12-1.4,150.47c-.3,32.34-29.51,54.12-60.34,52.92l-115.39-.76c-23.32,19.29-47.23,36.26-72.96,51.71l-22.73,13.64-.13,41.72-.7,111.97c-.2,31.7-23.16,56.97-54.72,56.8Z"/>
      <path class="st0" d="M560.45,715.95l-1.12,100.73c-.24,21.43-16.66,38.71-37.91,38.7l-59.22-.03-129.64-.85c-22.5-.15-39.42-18.1-39.25-40.7l1.19-150.6,25.28,12.94c20.3,10.39,41.48,17.25,63.89,22.41,50.89,11.71,105.74,2.52,152.72-19.44l24.77-11.58-.7,48.43Z"/>
      <path class="st0" d="M554.55,207.99l-36.53-17.3c-18.26-8.65-37.36-12.81-57.73-13.69-31.19-3.52-61.96-.45-91.78,9.23-11.94,3.31-22.77,7.51-33.54,13.26l-22.96,12.26,1.64-160.92c.12-12.17,8.27-22.3,17.63-28.66,8.31-5.64,16.79-6.85,26.57-6.79l86.66.51,71.91.51c21.72.15,39.34,18.86,39.18,39.21l-.52,67.92-.52,84.47Z"/>
      <path class="st0" d="M75.32,474.01c18.8,26.96,40.77,50.14,64.18,72.58l30.16,27.55-43.5.25-69.94-.23c-19.69-1.22-37.6-16.25-37.46-36.67l.62-87.84,1.58-118.41c.22-16.84,19.26-35.68,38.02-35.53l56.71.45,77.16.74-44.92,39.75c-18.97,16.79-35.52,35.1-51.83,54.43-9.58,11.44-18.21,22.55-26.02,35.25-10.83,17.6-6.12,31.36,5.25,47.66Z"/>
      <path class="st0" d="M832.08,545.44c-3.47,20.16-20.33,34.74-40.62,34.67l-102.14-.39c24.53-21.4,47.31-42.56,68.43-66.44,13.6-15.37,26.17-30.6,37.04-47.81,6.95-11.41,7.38-24.27,1.13-36.11-6.83-12.93-15.05-24.37-24.41-35.87-27.82-34.15-58.29-64.53-91.8-94.4l61.23-.2,55.89.56c21.49.77,37.45,20.13,37.27,41.17l-.72,82.78-1.31,122.03Z"/>
      <g>
        <path class="st3" d="M324.26,532.98c-13.13-18.12-21.71-38.39-26.04-60.27l-2.69-21.96c-1.71-36.56,7.57-73.58,31.8-102.69,2.61,22.19,14.89,39.03,34.32,47.21,15.78,6.65,32.64,5.89,47.23-3.44,19.27-12.31,29.06-34.5,24.03-57.3-5.77-26.18-28.45-42.72-55.47-43.95,11.82-6.88,24.18-9.12,36.72-11.31,19.17-3.34,38.34-1.9,57.46,2.39,42.91,9.63,78.78,38.6,98.89,77.68,15.92,30.93,20.57,66.35,14.91,100.46-7.35,44.33-31.47,82.86-68.14,107.62-63.1,42.6-148.35,27.17-193.03-34.47Z"/>
        <path class="st2" d="M294.86,584.06c-4.47-.71-7.81-2.91-11.56-5.16-37.29-22.35-72.55-50.77-103.45-81.53-12.23-12.18-24.12-23.78-34.32-37.7l-11.04-15.07c-1.98-2.7-1.63-5.67.39-8.5,10.92-15.3,23.47-28.46,36.65-42.19,35.36-34.54,75.66-63.34,121.75-85.19-8.25,13.33-17.07,23.81-23.66,36.85-16.83,33.37-24.83,69.59-23.42,107.06l3.92,33.2c5.87,32.45,18.57,58.19,36.32,85.33l8.42,12.89Z"/>
        <path class="st2" d="M721.34,472.04c-13.08,15.8-27.57,28.78-42.63,42.3-20.03,17.98-40.87,33.77-63.5,48.29-9.96,6.39-18.93,13.24-30.83,17.65,16.22-21.82,29.8-43.62,38.36-68.76,11.2-32.9,14.33-54.51,13.09-89.54-.67-18.89-5.63-36.46-11.45-54.41-6.73-20.75-17.49-38.17-30.32-57.03,19.65,9.25,35.38,21.39,51.96,33.24l27.39,22.44c20.94,17.16,52.55,50.54,66.87,72.75,2.46,3.82,1.86,7.4-.56,10.46l-6.7,8.51-11.67,14.1Z"/>
      </g>
    </g>
  </g>
</svg>